<svg id="e95ca587-bb8e-4d7b-8dfd-8395dc4d69d5" data-name="Layer 1" xmlns="http://www.w3.org/2000/svg" width="156" height="39.15" viewBox="0 0 156 39.15"><path d="M271.76,381.19h-5.7v5.86h-2.63v-5.86h-5.66v-2.64h5.66v-5.89h2.63v5.89h5.7Z" transform="translate(-234.32 -353.37)" fill="#c0151b"/><path d="M280.56,388.1a4.25,4.25,0,0,1-.34,1.69,4.58,4.58,0,0,1-.92,1.41,4.75,4.75,0,0,1-1.38,1,4.1,4.1,0,0,1-1.71.37,6.27,6.27,0,0,1-1.58-.22,3.77,3.77,0,0,1-1.45-.74,4,4,0,0,1-1.06-1.38,4.94,4.94,0,0,1-.42-2.17V377.5a4.58,4.58,0,0,1,.33-1.75,4,4,0,0,1,.91-1.39,4,4,0,0,1,1.41-.93,4.78,4.78,0,0,1,1.81-.33,4.53,4.53,0,0,1,1.74.33,4.21,4.21,0,0,1,1.4.94,4.33,4.33,0,0,1,.92,1.45,4.82,4.82,0,0,1,.34,1.84v1.07h-2.74v-.91a2.26,2.26,0,0,0-.45-1.4,1.5,1.5,0,0,0-1.24-.59,1.38,1.38,0,0,0-1.35.63,3.33,3.33,0,0,0-.34,1.6v9.77a2.52,2.52,0,0,0,.36,1.39,1.42,1.42,0,0,0,1.3.57,1.77,1.77,0,0,0,.58-.1,1.65,1.65,0,0,0,.57-.3,1.72,1.72,0,0,0,.41-.6,2.32,2.32,0,0,0,.16-.93v-.94h2.74Z" transform="translate(-234.32 -353.37)" fill="#58595b"/><path d="M282.36,377.76a4.84,4.84,0,0,1,.4-2,4.24,4.24,0,0,1,1.06-1.47A4.77,4.77,0,0,1,287,373.1a4.72,4.72,0,0,1,3.12,1.16,4.24,4.24,0,0,1,1.06,1.47,4.84,4.84,0,0,1,.41,2v10.1a4.84,4.84,0,0,1-.41,2.05,4.36,4.36,0,0,1-1.06,1.45,4.73,4.73,0,0,1-4.77.87,4.7,4.7,0,0,1-1.48-.87,4.36,4.36,0,0,1-1.06-1.45,4.84,4.84,0,0,1-.4-2.05Zm2.73,10.1a1.83,1.83,0,0,0,.55,1.46,2,2,0,0,0,1.31.47,2,2,0,0,0,1.3-.47,1.83,1.83,0,0,0,.55-1.46v-10.1a1.85,1.85,0,0,0-.55-1.46,2,2,0,0,0-1.3-.47,2,2,0,0,0-1.31.47,1.85,1.85,0,0,0-.55,1.46Z" transform="translate(-234.32 -353.37)" fill="#58595b"/><path d="M293.39,373.26H296l4.13,11.51h.05V373.26h2.74v19.1h-2.58l-4.18-11.48h-.06v11.48h-2.73Z" transform="translate(-234.32 -353.37)" fill="#58595b"/><path d="M313.76,378.76H311v-.62a2.93,2.93,0,0,0-.44-1.62,1.65,1.65,0,0,0-1.49-.69,1.73,1.73,0,0,0-.93.22,1.48,1.48,0,0,0-.56.55,2.26,2.26,0,0,0-.29.78,5.43,5.43,0,0,0-.08.92c0,.38,0,.7,0,.95a1.75,1.75,0,0,0,.21.68,1.45,1.45,0,0,0,.47.49,3.6,3.6,0,0,0,.84.43l2.09.83a5.53,5.53,0,0,1,1.48.82,3.17,3.17,0,0,1,.87,1.1,4.55,4.55,0,0,1,.42,1.45,14.83,14.83,0,0,1,.11,1.87,9.37,9.37,0,0,1-.25,2.24,4.63,4.63,0,0,1-.79,1.77,3.79,3.79,0,0,1-1.46,1.17,5.31,5.31,0,0,1-2.23.43,4.91,4.91,0,0,1-1.85-.35,4.67,4.67,0,0,1-1.48-1,4.47,4.47,0,0,1-1-1.43,4.36,4.36,0,0,1-.37-1.8v-1h2.74v.86a2.25,2.25,0,0,0,.44,1.35,1.71,1.71,0,0,0,1.49.61,2.46,2.46,0,0,0,1.09-.2,1.41,1.41,0,0,0,.59-.57,2.28,2.28,0,0,0,.25-.9,10.56,10.56,0,0,0,.06-1.18,10.26,10.26,0,0,0-.06-1.23,2,2,0,0,0-.22-.78,1.33,1.33,0,0,0-.49-.48,6.66,6.66,0,0,0-.81-.41l-2-.8a4.32,4.32,0,0,1-2.38-1.92,6.63,6.63,0,0,1-.6-3,7.13,7.13,0,0,1,.29-2,4.91,4.91,0,0,1,.87-1.67,4.33,4.33,0,0,1,1.47-1.11,4.77,4.77,0,0,1,2.06-.41,4.56,4.56,0,0,1,1.87.37,4.66,4.66,0,0,1,1.45,1,4.49,4.49,0,0,1,.92,1.39,3.92,3.92,0,0,1,.33,1.57Z" transform="translate(-234.32 -353.37)" fill="#58595b"/><path d="M317.35,375.83h-3.16v-2.57h9.07v2.57h-3.17v16.53h-2.74Z" transform="translate(-234.32 -353.37)" fill="#58595b"/><path d="M324.46,373.26h4.4c3.22,0,4.84,1.87,4.84,5.61a7,7,0,0,1-.53,2.85,4,4,0,0,1-1.84,1.92l3,8.72h-2.9l-2.55-8.15H327.2v8.15h-2.74Zm2.74,8.53h1.56a2.83,2.83,0,0,0,1.15-.2,1.44,1.44,0,0,0,.66-.58,2.62,2.62,0,0,0,.31-.92,9.63,9.63,0,0,0,.08-1.28,9.36,9.36,0,0,0-.08-1.27,2.39,2.39,0,0,0-.34-.94,1.57,1.57,0,0,0-.71-.58,3.33,3.33,0,0,0-1.21-.19H327.2Z" transform="translate(-234.32 -353.37)" fill="#58595b"/><path d="M344,388.07a4.16,4.16,0,0,1-.35,1.74,4.51,4.51,0,0,1-2.36,2.37,4.38,4.38,0,0,1-3.43,0,4.51,4.51,0,0,1-2.36-2.37,4.16,4.16,0,0,1-.35-1.74V373.26h2.73V387.8a2,2,0,0,0,.49,1.5,1.73,1.73,0,0,0,2.41,0,2,2,0,0,0,.49-1.5V373.26H344Z" transform="translate(-234.32 -353.37)" fill="#58595b"/><path d="M354.71,388.1a4.25,4.25,0,0,1-.34,1.69,4.58,4.58,0,0,1-.92,1.41,4.67,4.67,0,0,1-1.39,1,4,4,0,0,1-1.7.37,6.2,6.2,0,0,1-1.58-.22,3.77,3.77,0,0,1-1.45-.74,3.91,3.91,0,0,1-1.06-1.38,4.94,4.94,0,0,1-.42-2.17V377.5a4.78,4.78,0,0,1,.32-1.75,4.12,4.12,0,0,1,.92-1.39,4,4,0,0,1,1.41-.93,4.75,4.75,0,0,1,1.81-.33,4.57,4.57,0,0,1,1.74.33,4.21,4.21,0,0,1,1.4.94,4.33,4.33,0,0,1,.92,1.45,4.82,4.82,0,0,1,.34,1.84v1.07H352v-.91a2.2,2.2,0,0,0-.46-1.4,1.47,1.47,0,0,0-1.23-.59,1.41,1.41,0,0,0-1.36.63,3.45,3.45,0,0,0-.33,1.6v9.77a2.52,2.52,0,0,0,.36,1.39,1.42,1.42,0,0,0,1.3.57,1.81,1.81,0,0,0,.58-.1,1.52,1.52,0,0,0,.56-.3,1.61,1.61,0,0,0,.42-.6,2.32,2.32,0,0,0,.16-.93v-.94h2.74Z" transform="translate(-234.32 -353.37)" fill="#58595b"/><path d="M358.44,375.83h-3.17v-2.57h9.07v2.57h-3.16v16.53h-2.74Z" transform="translate(-234.32 -353.37)" fill="#58595b"/><path d="M365.63,373.26h2.74v19.1h-2.74Z" transform="translate(-234.32 -353.37)" fill="#58595b"/><path d="M370.08,377.76a4.84,4.84,0,0,1,.41-2,4.24,4.24,0,0,1,1.06-1.47,4.72,4.72,0,0,1,3.12-1.16,4.77,4.77,0,0,1,3.13,1.16,4.24,4.24,0,0,1,1.06,1.47,4.84,4.84,0,0,1,.4,2v10.1a4.84,4.84,0,0,1-.4,2.05,4.36,4.36,0,0,1-1.06,1.45,4.85,4.85,0,0,1-3.13,1.17,4.8,4.8,0,0,1-3.12-1.17,4.36,4.36,0,0,1-1.06-1.45,4.84,4.84,0,0,1-.41-2.05Zm2.74,10.1a1.83,1.83,0,0,0,.55,1.46,2,2,0,0,0,1.3.47,2,2,0,0,0,1.31-.47,1.83,1.83,0,0,0,.55-1.46v-10.1a1.85,1.85,0,0,0-.55-1.46,2,2,0,0,0-1.31-.47,2,2,0,0,0-1.3.47,1.85,1.85,0,0,0-.55,1.46Z" transform="translate(-234.32 -353.37)" fill="#58595b"/><path d="M380.77,373.26h2.63l4.13,11.51h.05V373.26h2.74v19.1h-2.58l-4.18-11.48h-.06v11.48h-2.73Z" transform="translate(-234.32 -353.37)" fill="#58595b"/><path d="M234.32,353.53h4a5.79,5.79,0,0,1,2.24.4,4.27,4.27,0,0,1,1.52,1.08,4,4,0,0,1,.84,1.54,6.44,6.44,0,0,1,.26,1.81v.7a5.41,5.41,0,0,1-.13,1.31,3.07,3.07,0,0,1-.36.94,3.15,3.15,0,0,1-.59.72,5.66,5.66,0,0,1-.8.57,3,3,0,0,1,1.42,1.36,5.39,5.39,0,0,1,.46,2.4v1.07A5.55,5.55,0,0,1,242,371.3a5,5,0,0,1-3.9,1.34h-3.73Zm2.74,7.84h1.23a2.09,2.09,0,0,0,1.84-.69,3.54,3.54,0,0,0,.47-2,3.08,3.08,0,0,0-.52-1.93,2.34,2.34,0,0,0-1.9-.64h-1.12Zm0,8.53h1.18a2.9,2.9,0,0,0,1.3-.24,1.65,1.65,0,0,0,.71-.67,2.65,2.65,0,0,0,.3-1c0-.39,0-.82,0-1.29a9.21,9.21,0,0,0-.08-1.26,2.14,2.14,0,0,0-.34-.9,1.59,1.59,0,0,0-.71-.55,3.29,3.29,0,0,0-1.21-.19h-1.2Z" transform="translate(-234.32 -353.37)" fill="#231f20"/><path d="M253.75,368.35a4.44,4.44,0,0,1-2.71,4.1,4.4,4.4,0,0,1-3.44,0,4.67,4.67,0,0,1-1.41-.95,4.43,4.43,0,0,1-1.3-3.15V353.53h2.74v14.55a2,2,0,0,0,.48,1.5,1.77,1.77,0,0,0,2.42,0,2,2,0,0,0,.48-1.5V353.53h2.74Z" transform="translate(-234.32 -353.37)" fill="#231f20"/><path d="M255.87,353.53h2.74v19.11h-2.74Z" transform="translate(-234.32 -353.37)" fill="#231f20"/><path d="M260.75,353.53h2.74V369.9h5.42v2.74h-8.16Z" transform="translate(-234.32 -353.37)" fill="#231f20"/><path d="M269.61,353.53h4.05a4.71,4.71,0,0,1,3.57,1.3,5.1,5.1,0,0,1,1.24,3.64v8.94a5.3,5.3,0,0,1-1.31,3.95,5.11,5.11,0,0,1-3.74,1.28h-3.81Zm2.74,16.53h1.26a2,2,0,0,0,1.63-.57,2.77,2.77,0,0,0,.49-1.82v-9.2a2.89,2.89,0,0,0-.46-1.75,1.94,1.94,0,0,0-1.66-.61h-1.26Z" transform="translate(-234.32 -353.37)" fill="#231f20"/><path d="M280.48,353.53h2.74v19.11h-2.74Z" transform="translate(-234.32 -353.37)" fill="#231f20"/><path d="M285.2,353.53h2.63L292,365H292V353.53h2.73v19.11h-2.57L288,361.15h-.05v11.49H285.2Z" transform="translate(-234.32 -353.37)" fill="#231f20"/><path d="M296.85,358a4.86,4.86,0,0,1,.4-2,4.2,4.2,0,0,1,1.06-1.46,4.35,4.35,0,0,1,1.48-.87,4.72,4.72,0,0,1,1.65-.3,4.8,4.8,0,0,1,1.65.3,4.4,4.4,0,0,1,1.47.87,4.2,4.2,0,0,1,1.06,1.46,4.86,4.86,0,0,1,.41,2v1h-2.74v-1a1.83,1.83,0,0,0-.55-1.46,2,2,0,0,0-2.6,0,1.8,1.8,0,0,0-.55,1.46v10.09a1.8,1.8,0,0,0,.55,1.46,2,2,0,0,0,2.6,0,1.83,1.83,0,0,0,.55-1.46v-3.6h-2.18v-2.41H306v6a4.81,4.81,0,0,1-.41,2.05,4.16,4.16,0,0,1-1.06,1.45,4.4,4.4,0,0,1-1.47.87,4.8,4.8,0,0,1-1.65.3,4.72,4.72,0,0,1-1.65-.3,4.35,4.35,0,0,1-1.48-.87,4.16,4.16,0,0,1-1.06-1.45,4.81,4.81,0,0,1-.4-2.05Z" transform="translate(-234.32 -353.37)" fill="#231f20"/><path d="M311.83,353.53h4.05a4.71,4.71,0,0,1,3.57,1.3,5.09,5.09,0,0,1,1.23,3.64v8.94a5.3,5.3,0,0,1-1.3,3.95,5.12,5.12,0,0,1-3.74,1.28h-3.81Zm2.73,16.53h1.27a2,2,0,0,0,1.63-.57,2.83,2.83,0,0,0,.49-1.82v-9.2a3,3,0,0,0-.46-1.75,2,2,0,0,0-1.66-.61h-1.27Z" transform="translate(-234.32 -353.37)" fill="#231f20"/><path d="M322.5,353.53h8.16v2.58h-5.42v5.61H330v2.57h-4.72v5.61h5.42v2.74H322.5Z" transform="translate(-234.32 -353.37)" fill="#231f20"/><path d="M341,359h-2.74v-.61a2.9,2.9,0,0,0-.44-1.63,1.65,1.65,0,0,0-1.49-.68,1.88,1.88,0,0,0-.93.21,1.73,1.73,0,0,0-.56.55,2.41,2.41,0,0,0-.28.78,5.55,5.55,0,0,0-.08.93,8.65,8.65,0,0,0,0,.95,1.7,1.7,0,0,0,.2.67,1.58,1.58,0,0,0,.47.5,5.1,5.1,0,0,0,.85.43l2.09.83a4.84,4.84,0,0,1,1.47.82,3.32,3.32,0,0,1,.88,1.1,4.74,4.74,0,0,1,.41,1.45,14.55,14.55,0,0,1,.11,1.86,9.86,9.86,0,0,1-.24,2.24,4.78,4.78,0,0,1-.79,1.77,3.81,3.81,0,0,1-1.47,1.17,5.11,5.11,0,0,1-2.22.43,4.87,4.87,0,0,1-1.85-.35,4.46,4.46,0,0,1-2.82-4.19v-1h2.73v.86a2.22,2.22,0,0,0,.45,1.36,1.72,1.72,0,0,0,1.49.6,2.31,2.31,0,0,0,1.08-.2,1.33,1.33,0,0,0,.59-.56,2.27,2.27,0,0,0,.26-.9c0-.36,0-.75,0-1.18s0-.91,0-1.24a1.9,1.9,0,0,0-.23-.77,1.5,1.5,0,0,0-.48-.49,7,7,0,0,0-.82-.4l-2-.81a4.32,4.32,0,0,1-2.37-1.91,6.54,6.54,0,0,1-.61-3,6.9,6.9,0,0,1,.3-2,4.62,4.62,0,0,1,.87-1.66,4.08,4.08,0,0,1,1.46-1.11,4.78,4.78,0,0,1,2.07-.42,4.57,4.57,0,0,1,4.24,2.75,4.08,4.08,0,0,1,.32,1.57Z" transform="translate(-234.32 -353.37)" fill="#231f20"/><path d="M342.87,353.53h2.74v19.11h-2.74Z" transform="translate(-234.32 -353.37)" fill="#231f20"/><path d="M347.61,358.08a4.86,4.86,0,0,1,.4-2,4.2,4.2,0,0,1,1.06-1.46,4.35,4.35,0,0,1,1.48-.87,4.72,4.72,0,0,1,1.65-.3,4.8,4.8,0,0,1,1.65.3,4.31,4.31,0,0,1,1.47.87,4.08,4.08,0,0,1,1.06,1.46,4.86,4.86,0,0,1,.41,2v1h-2.74v-1a1.8,1.8,0,0,0-.55-1.46,2,2,0,0,0-2.6,0,1.8,1.8,0,0,0-.55,1.46v10.09a1.8,1.8,0,0,0,.55,1.46,2,2,0,0,0,2.6,0,1.8,1.8,0,0,0,.55-1.46v-3.6h-2.17v-2.41h4.91v6a4.81,4.81,0,0,1-.41,2.05,4,4,0,0,1-1.06,1.45,4.5,4.5,0,0,1-1.47.88,5,5,0,0,1-1.65.29,4.94,4.94,0,0,1-1.65-.29,4.54,4.54,0,0,1-1.48-.88,4.16,4.16,0,0,1-1.06-1.45,4.81,4.81,0,0,1-.4-2.05Z" transform="translate(-234.32 -353.37)" fill="#231f20"/><path d="M358.79,353.53h2.63L365.55,365h.05V353.53h2.74v19.11h-2.58l-4.18-11.49h-.06v11.49h-2.73Z" transform="translate(-234.32 -353.37)" fill="#231f20"/><path d="M369.47,353.51a.65.65,0,1,1,0,1.3.65.65,0,1,1,0-1.3Zm0,1.2a.56.56,0,1,0-.54-.56A.54.54,0,0,0,369.47,354.71Zm-.25-.93h.29q.27,0,.27.21a.2.2,0,0,1-.2.21l.22.34h-.13l-.21-.33h-.12v.33h-.12Zm.12.33h.12c.1,0,.2,0,.2-.12s-.09-.12-.17-.12h-.15Z" transform="translate(-234.32 -353.37)" fill="#231f20"/></svg>