<?xml version="1.0" encoding="utf-8"?>
<!-- Generator: Adobe Illustrator 19.1.1, SVG Export Plug-In . SVG Version: 6.00 Build 0)  -->
<svg version="1.1" id="图层_1" xmlns="http://www.w3.org/2000/svg" xmlns:xlink="http://www.w3.org/1999/xlink" x="0px" y="0px"
	 viewBox="0 0 841.9 595.3" style="enable-background:new 0 0 841.9 595.3;" xml:space="preserve">
<style type="text/css">
	.st0{fill-rule:evenodd;clip-rule:evenodd;fill:#152041;}
</style>
<path class="st0" d="M579.4,410.5c2,0.2,3.1,0.3,4.1,1.5c0.6,0.7,0.9,1.6,0.9,2c-0.1,10.1-0.3,19-0.4,21.2c-0.1,2.5-0.8,3.1-2,3.4
	c-0.6,0.2-1.1,0.2-2,0.3c-0.1,0-0.1,0.6,0,0.7c0.9,0,2.5-0.2,4.7-0.2c2.5,0,4.5,0.2,5.4,0.2c0.1,0,0.2-0.7,0.1-0.7
	c-0.9-0.1-1.9-0.2-2.5-0.5c-1-0.3-1.8-0.8-1.9-3.2c-0.1-2.8-0.1-15.5,0-20.3c0.1,0,0.1,0,0.2-0.1c2.2,2.6,17.4,21.3,19.9,24.9
	c0.5-0.1,2-0.1,2.4,0c-0.1-1.5-0.1-4.2-0.1-6.4c0.1-6.5,0-16.4,0.3-20c0.1-1.1,0.3-2.1,1.5-2.5c0.6-0.2,1-0.2,1.9-0.4
	c0.1-0.1,0.1-0.6,0-0.7c-0.5,0-3,0.1-4.4,0.1c-2.3,0-4.3-0.1-5.5-0.1c-0.1,0.1-0.2,0.6,0,0.7c1.1,0.1,2.1,0.2,2.9,0.5
	c1.4,0.5,1.5,1.3,1.6,2.6c0.3,3.4,0.2,14.9,0.2,21.4l-0.1,0.1c-1.7-2-13.1-15.8-18.7-22.6c-1.3-1.6-1.7-2.3-1.9-2.6
	c-0.4,0.1-1,0.1-2,0.1c-1.5,0-3.7-0.1-4.4-0.1C579.4,409.8,579.3,410.4,579.4,410.5L579.4,410.5z M556.1,180.3
	c-2.2,7.9-11.1,17.7-13.4,17.7c-0.5,0-1-0.4-1.3-1.1l-19.7-53.1l3.5-2.2l28,28C556.6,173.1,557.1,176.8,556.1,180.3L556.1,180.3z
	 M642.7,206.9c1.6,0,0.8-1.4,0-2.1l-14-12.5c-10.7,4.9-42.6,9.3-95.3,13.6c-28.2,2.3-62.5,4.8-103.1,6.2l14.5,12.6
	c17.5-4,39.4-7.4,76.8-10.1c-12,63.9-48.9,132.1-105,171l2.4,2.6c59.4-29.6,89-67.4,112.3-125.7l7.6,6.3c4.9-2.2,18.6-5.2,42.3-8
	c-9.8,47.1-14.9,75-25.2,88.6l-31.3-15.1l-1.6,2.3c15.2,13.1,28.5,28.2,34.1,39.2c8.3-2.9,13.3-11,17.3-18.3
	c13.7-25.1,19.3-55,25.7-82.5c1.6-6.3,7.1-15.5,11.9-18.6l-22.3-15.9l-9.4,12.3l-47.9,6.6c4-13.1,6.8-21.4,8.3-25
	c1.5-3.6,3-6.2,4.6-7.7c0.5-0.5,0.8-1,0.8-1.3c0-0.4-0.2-0.8-0.8-1.3l-10.2-9.9C570.2,211.4,607.1,209.2,642.7,206.9L642.7,206.9z
	 M383.8,196.9c1.2,1.2,1.1,2.1-0.8,2.1c-37,2.3-74.6,5.2-112.5,8.9c-4.2,8-12.2,20.8-20.1,31.6l3.6,1.9l68.7-9.2l6.5-10.1l21.5,12.5
	c-4.8,5.4-8.2,14-8.2,18.3V330c0,5.6-0.3,22.2-2,36c0,0.3-1.8,13.7-13,20.5c-7.9-10.6-22.2-27.2-33.9-37.1l1.6-2.4l23.2,10.3
	c1.9-2.6,3.4-6.8,3.4-21.4l0.2-96.1l-60.1,8.1v30c29.5-3.8,36.6-6.6,42.2-10.3l9.2,9.1c1.3,1.3,1.5,2-0.5,2.3l-50.9,7.8v20.5
	c29.8-3.8,37.4-6.4,44.3-10.5l9.2,9.9c1,1.1,1.4,2-0.5,2.3l-52.9,7.9v27.7c0,4.9-1.2,26-12.9,40.3c-0.1,0.1-10.8-13.9-12.4-16.3
	c6.6-11.2,5.8-27.2,5.8-34v-72.8c0-10.5-0.1-11-0.5-13.6c-18.3,22.9-44.9,45.7-77.3,66l-2.9-2.4c32.7-26.5,66.8-67.3,86.8-103.1
	c-30.2,2.6-47.5,4.8-59.7,7.9l-12-11.7l75.8-4.7c7.5-15.6,14.2-31.6,18.4-48.4c1-3.8,1.3-7.3,0.2-10.1l2.6-1.8l21.3,18.3
	c1.4,1.4,1.5,2.4-0.2,3.4c-2.6,1.6-7.1,13.8-20.4,37.9c28.1-3.5,68.6-5.3,97.7-14.2L383.8,196.9L383.8,196.9z M532.3,438.8
	c-2.7,0-4.8-0.7-6.5-1.8c-4.5-2.9-6.4-8.7-6.4-13.5c0-5,1.7-9.6,5.4-11.8c1.4-0.7,2.9-1.1,4.8-1.1c2.8,0,5.1,0.8,6.9,2.2
	c4.1,2.8,5.9,8,5.9,13.1c0,4.6-1.2,8.6-4.4,11.3C536.6,438.1,534.6,438.8,532.3,438.8L532.3,438.8z M530.4,440.3
	c4.7,0,9.6-2.2,12.3-6.4c1.9-2.8,2.9-5.8,2.9-9.8c0-7.8-4.8-15-14.3-15c-4.7,0-10.1,2.5-12.7,6.4c-1.6,2.5-2.6,5.5-2.6,8.9
	c0,4.1,1.3,8.3,4.1,11.4C522.4,438.4,526.3,440.3,530.4,440.3L530.4,440.3z M470.5,410.5c1.2,0.1,2.1,0.3,2.6,0.4
	c1.1,0.3,1.1,1.3,1.2,2.5c0.1,2.2,0.1,6,0.1,9.6c0,4-0.1,12.3-0.2,13.5c-0.1,1.1-0.3,1.8-1.5,2.1c-0.6,0.1-1.5,0.3-2.2,0.3
	c-0.1,0.1-0.2,0.6,0,0.7c2.5,0,3.4-0.2,5.8-0.2c2.1,0,3.8,0.2,4.9,0.2c0.1-0.1,0.2-0.6,0-0.7c-0.9-0.1-1.8-0.2-2.4-0.5
	c-1.2-0.3-1.4-1.1-1.5-2.7c0-1.6-0.1-6.9-0.1-11.5c0-4.2,0-9,0.1-11c0.1-1.5,0.3-2.2,1.3-2.5c0.4-0.1,1.3-0.2,2-0.3
	c0.1-0.1,0.1-0.6,0-0.7c-1.1,0-2.6,0.1-4.6,0.1c-2.2,0-4.7-0.1-5.6-0.1C470.4,409.8,470.3,410.4,470.5,410.5L470.5,410.5z
	 M432.7,409.9h-17.9c-1.2,0-2.9-0.3-3.6-0.7c-0.1-0.1-0.2,0-0.2,0c-0.2,2.1-0.5,4.8-0.9,6.8c0.1,0.1,0.7,0.2,0.8,0.1
	c0.8-2.6,1.1-3.3,1.7-4.2c0.3-0.5,1.2-0.7,1.4-0.7c1-0.1,6.6-0.1,7.6,0c0.1,0,0.3,0.1,0.3,0.3c0,7.8-0.1,22-0.1,23.4
	c-0.1,2.2-0.2,3.2-1.7,3.5c-0.6,0.1-1.6,0.3-3.2,0.5c-0.2,0.1-0.2,0.5,0,0.7c1.4,0,3.9-0.2,6.5-0.2c1.7,0,4.4,0.2,5.8,0.2
	c0.2,0,0.2-0.6,0.1-0.7c-1-0.1-1.7-0.2-2.4-0.4c-1-0.3-1.6-0.6-1.8-3.6c-0.1-2.3-0.2-16.6-0.2-23.4c0.1-0.1,0.1-0.1,0.2-0.2
	c1.2,0,6.3-0.1,8.2,0c0.7,0.1,1.2,0.5,1.3,1c0.2,0.8,0.4,1.9,0.5,3.7c0,0.2,0.8,0.2,0.8,0c0.2-2.4,0.5-5.1,1-6.5
	c-0.1-0.1-0.1-0.1-0.2-0.1C435.3,409.8,434.4,409.9,432.7,409.9L432.7,409.9z M366.3,410.5c1.1,0.1,2.1,0.3,2.6,0.4
	c1.1,0.3,1,1.3,1.2,2.5c0.1,2.2,0.1,6,0.1,9.6c0,4-0.1,12.3-0.2,13.5c-0.1,1.1-0.3,1.8-1.5,2.1c-0.6,0.1-1.5,0.3-2.2,0.3
	c-0.1,0.1-0.2,0.6,0,0.7c2.5,0,3.5-0.2,5.8-0.2c2.1,0,3.8,0.2,4.8,0.2c0.1-0.1,0.2-0.6,0.1-0.7c-0.9-0.1-1.8-0.2-2.5-0.5
	c-1.2-0.3-1.3-1.1-1.5-2.7c0-1.6-0.1-6.9-0.1-11.5c0-4.2,0-9,0.1-11c0.1-1.5,0.3-2.2,1.4-2.5c0.4-0.1,1.3-0.2,2-0.3
	c0.1-0.1,0.1-0.6-0.1-0.7c-1.2,0-2.6,0.1-4.6,0.1c-2.2,0-4.7-0.1-5.6-0.1C366.2,409.8,366.1,410.4,366.3,410.5L366.3,410.5z
	 M315.1,432.5c-0.1-0.1-0.7,0-0.8,0.2c0.2,1.8,0.6,5.5,1.1,6.1c1,0.7,3.5,1.4,6.1,1.4c6.5,0,10.2-3.9,10.2-8.6
	c0-3.7-2.6-5.7-4.7-7.1c-1.4-0.9-3.6-2.1-5.5-3.4c-1.9-1.4-3.3-3.1-3.3-5.9c0.1-2.9,1.9-5.4,5.5-5.4c1.6,0,2.9,0.2,3.9,0.8
	c1.2,0.7,1.5,1.5,1.6,4.8c0.1,0.1,0.7,0.1,0.8-0.1c0.2-2.3,0.6-4.3,0.8-5.9c-0.5,0-1.4-0.1-2.4-0.3c-1.1-0.2-2.3-0.3-4.1-0.3
	c-5,0-8.9,3-8.9,7.8c0,4,3,6.6,6.6,8.8c4.2,2.6,6.6,4.4,6.6,7.8c0,3.8-2.6,5.7-5.6,5.7c-2,0-3.6-0.3-4.8-1.1
	C316.8,437.1,316,435.9,315.1,432.5L315.1,432.5z M265.9,438.8c-2.7,0-4.8-0.7-6.5-1.8c-4.5-2.9-6.4-8.7-6.4-13.5
	c0-5,1.6-9.6,5.5-11.8c1.3-0.7,2.9-1.1,4.8-1.1c2.8,0,5.1,0.8,6.9,2.2c4.1,2.8,5.9,8,5.9,13.1c0,4.6-1.2,8.6-4.4,11.3
	C270.2,438.1,268.1,438.8,265.9,438.8L265.9,438.8z M264,440.3c4.7,0,9.6-2.2,12.3-6.4c1.9-2.8,2.8-5.8,2.8-9.8
	c0-7.8-4.8-15-14.3-15c-4.7,0-10.1,2.5-12.7,6.4c-1.6,2.5-2.6,5.5-2.6,8.9c0,4.1,1.3,8.3,4.1,11.4C256,438.4,259.8,440.3,264,440.3
	L264,440.3z M202.6,426.8c0.5,0.2,1.4,0.2,2.2,0.2c1.7,0,3.3-0.3,4.8-1c2.6-1.2,5.1-3.9,5-8.4c0-3-1.3-4.9-2.8-6.1
	c-1.7-1.4-4.5-1.8-6.2-1.8c-2.6,0-4.2,0.1-6.5,0.1c-2.2,0-4.4-0.1-5.2-0.1c-0.1,0-0.2,0.6-0.1,0.7c1,0.1,1.8,0.2,2.4,0.4
	c1.2,0.3,1.4,1.1,1.5,2.7c0.1,1.3,0,7.8,0,10.8c0,7.1-0.1,9.8-0.2,11.2c-0.1,2.7-0.7,2.6-1.7,2.9c-0.6,0.1-1.4,0.2-2.3,0.3
	c-0.1,0.1-0.1,0.6,0.1,0.7c0.8,0,3.4-0.2,5.5-0.2c1.7,0,4.5,0.2,5.7,0.2c0.1,0,0.1-0.6-0.1-0.7c-0.7-0.1-1.5-0.2-2.2-0.3
	c-1.5-0.3-1.9-0.5-2-3.1c-0.1-3.3,0-12.8,0-13c0-6.2,0.1-9.6,0.2-10.8c0.1-0.4,0.2-0.6,0.3-0.6c0.3-0.2,1.4-0.2,1.9-0.2
	c6.3,0,8.4,3.6,8.4,8c0,2.7-0.6,5-3,6.4c-1,0.6-2.3,0.8-3.9,0.8c-1.1,0-1.7-0.1-2.2-0.2c0,0-0.1,0.2-0.1,0.2
	C202.2,426.2,202.4,426.7,202.6,426.8z"/>
</svg>
